# xmcd CD database file
#
# Track frame offsets:
#	150
#	17460
#	38771
#	59536
#	79960
#	101078
#	132538
#	152226
#	169265
#	187290
#	206146
#	222335
#	244181
#
# Disc length: 3552 seconds
#
# Revision: 0
# Processed by: cddbd v1.5.2PL0 Copyright (c) Steve Scherf et al.
# Submitted via: CDex 1.70beta2
#
DISCID=c40dde0d
DTITLE=JABBERLOOP - REVENGE of the SPACE MONSTAR
DYEAR=2009
DGENRE=Jazz
TTITLE0=REVENGE OF THE SPACE MONSTER
TTITLE1=Here We Go!!
TTITLE2=RE:LOOP
TTITLE3=BEHIND THE WIND
TTITLE4=ATMOSPHERE ENTRY
TTITLE5=NTERLUDE
TTITLE6=MISSING MY BIRD
TTITLE7=SHIROKUMA
TTITLE8=WITH ALL MY LOVE,
TTITLE9=UGETSU
TTITLE10=AREA51
TTITLE11=BERMUDA TRIANGLE
TTITLE12=WHITE OUT
EXTD=YEAR: 2009
EXTT0=
EXTT1=
EXTT2=
EXTT3=
EXTT4=
EXTT5=
EXTT6=
EXTT7=
EXTT8=
EXTT9=
EXTT10=
EXTT11=
EXTT12=
PLAYORDER=
